<?xml version="1.0" encoding="UTF-8"?><svg id="Capa_2" xmlns="http://www.w3.org/2000/svg" viewBox="0 0 860.14 879.66"><g id="Capa_1-2"><path d="m859.79,460.26c-1.03,22.46-2.72,44.86-6.73,67.02-3.96,21.87-8.25,43.71-15.27,64.82-4.61,13.84-8.97,27.84-15.07,41.13-7.43,16.18-15.12,32.22-24.23,47.58-13.54,22.83-29.05,44.16-46.82,63.85-7.95,8.81-15.66,17.87-25.22,25.07-10.6,11.3-22.95,20.52-35.29,29.74-14.33,10.7-29.46,20.24-45.19,28.73-14.88,8.03-30.27,14.99-45.91,21.47-18.78,7.78-38.3,13.14-57.84,18.24-17.18,4.49-34.83,7.06-52.58,8.79-19.42,1.89-38.84,3.5-58.35,2.79-21.96-.81-43.81-2.67-65.59-6.08-27.06-4.23-53.23-11.62-78.82-20.93-16.59-6.03-32.83-13.07-48.56-21.33-12.76-6.69-25.26-13.76-37.32-21.51-17.83-11.45-34.75-24.19-50.74-38.21-12.51-10.96-24.53-22.4-35.62-34.72-14.62-16.25-28.27-33.31-40.32-51.67-9.65-14.71-18.79-29.66-26.63-45.41-.88-1.77-1.46-3.69-2.18-5.53h0c-5.26-7.51-8.61-16.01-11.75-24.48-3.97-10.7-8.77-21.09-12-32.09-3.26-11.14-5.97-22.42-9.19-33.54-3.91-13.46-6.05-27.16-7.96-40.93-3.7-26.75-5.47-53.63-4.21-80.65,1.27-27.28,4.23-54.39,10.28-81.03,3.04-13.37,7.12-26.52,11.25-39.61,5.01-15.93,11.19-31.45,18.29-46.58,1.42-3.04,2.21-6.53,4.85-8.95,3.9-11.16,10.42-20.96,16.21-31.14,10.9-19.18,23.68-37.11,37.6-54.13,11.73-14.35,24.33-27.98,37.9-40.72,16.09-15.11,33.1-29.04,51.13-41.73,14.47-10.2,29.51-19.58,45.24-27.64,16.29-8.36,32.94-15.98,50.16-22.5,15.88-6.02,32.06-10.75,48.36-15.17,19.9-5.4,40.2-8.51,60.74-10.61,27.61-2.82,55.17-3.52,82.82-1.25,21.07,1.73,42.06,4.34,62.61,9.26,15.78,3.77,31.55,8.03,46.75,13.65,17.98,6.65,35.73,14.02,52.84,22.88,13.69,7.09,27.11,14.64,39.99,23.01,16.75,10.89,32.93,22.63,48.02,35.81,3.34,2.92,3.51,4.79.36,7.86-9.94,9.71-19.69,19.61-29.48,29.47-12.12,12.2-24.13,24.52-36.32,36.66-18.64,18.57-37.42,37-56.03,55.61-1.74,1.74-2.44,1.64-4.33.24-13.39-9.96-27.13-19.26-41.97-27.11-17.71-9.36-36.22-16.56-55.46-21.32-25.61-6.34-51.81-8.84-78.27-6.98-19.61,1.39-39.11,3.89-57.87,9.89-17.13,5.47-33.92,11.87-49.84,20.58-12.52,6.86-24.45,14.58-35.67,23.21-7.93,6.09-15.57,12.73-22.76,19.87-16.65,16.53-30.99,34.8-42.75,55.04-8.33,14.33-15.49,29.26-20.61,45.08-.4,1.25-1.1,2.4-1.65,3.6.68,4.23-2.35,7.39-3.33,11.18-8.91,34.81-11.97,69.88-6.92,105.64,1.83,13.01,4.38,25.78,7.57,38.48.79,3.15,3.7,5.67,2.72,9.3,4.45,8.18,6.37,17.37,10.5,25.73,7.26,14.7,15.13,28.98,24.55,42.46,5.45,7.79,11.51,15.05,17.71,22.14,13.45,15.39,28.77,28.79,45.52,40.54,14.15,9.92,29.09,18.44,45,25.1,21.49,8.99,43.61,15.51,66.87,18.73,28.68,3.98,57.16,2.95,85.59-.84,15.42-2.06,30.72-5.15,45.48-10.69,11-4.13,22.22-7.71,32.72-13.01,7.34-3.71,14.31-8.18,21.44-12.3h0c24.44-16.16,45.02-36.25,60.52-61.13,9.55-15.33,16.99-31.72,21.88-49.26,1.54-5.54,3.13-11.1,4.75-16.63.72-2.48.05-3.44-2.45-3.37-1.49.04-2.99-.01-4.49-.01-74.15,0-148.3-.06-222.44.14-5.23.01-6.16-1.47-6.14-6.33.18-52.48.11-104.96.11-157.44,0-6.4.02-6.41,6.5-6.41h394.89c8.74,0,9.64.87,11.29,9.69,5.63,30.04,8.55,60.3,7.16,90.89Z" stroke-width="0"/><path d="m725.8,113.82c-9.94,9.71-19.69,19.61-29.48,29.47-12.12,12.2-24.13,24.52-36.32,36.66-18.64,18.57-37.42,37-56.03,55.61-1.74,1.74-2.44,1.64-4.33.24-13.39-9.96-27.13-19.26-41.97-27.11-17.71-9.36-36.22-16.56-55.46-21.32-25.61-6.34-51.81-8.84-78.27-6.98-19.61,1.39-39.11,3.89-57.87,9.89-17.13,5.47-33.92,11.87-49.84,20.58-12.52,6.86-24.45,14.58-35.67,23.21-7.93,6.09-15.57,12.73-22.76,19.87-16.65,16.53-30.99,34.8-42.75,55.04-8.33,14.33-15.49,29.26-20.61,45.08-.4,1.25-1.1,2.4-1.65,3.6-1.9,2.22-3.48.84-5.14-.39-17.59-13.08-34.95-26.46-52.18-40.01-12.65-9.95-25.65-19.46-38.45-29.22-12.55-9.56-25.37-18.76-37.59-28.75-3.97-3.25-8.72-5.49-12.17-9.44-.96-1.09-2.53-1.75-2.19-3.61,3.9-11.16,10.42-20.96,16.21-31.14,10.9-19.18,23.68-37.11,37.6-54.13,11.73-14.35,24.33-27.98,37.9-40.72,16.09-15.11,33.1-29.04,51.13-41.73,14.47-10.2,29.51-19.58,45.24-27.64,16.29-8.36,32.94-15.98,50.16-22.5,15.88-6.02,32.06-10.75,48.36-15.17,19.9-5.4,40.2-8.51,60.74-10.61,27.61-2.82,55.17-3.52,82.82-1.25,21.07,1.73,42.06,4.34,62.61,9.26,15.78,3.77,31.55,8.03,46.75,13.65,17.98,6.65,35.73,14.02,52.84,22.88,13.69,7.09,27.11,14.64,39.99,23.01,16.75,10.89,32.93,22.63,48.02,35.81,3.34,2.92,3.51,4.79.36,7.86Z" fill="#e94335" stroke-width="0"/><path d="m726.45,769.73c-10.6,11.3-22.95,20.52-35.29,29.74-14.33,10.7-29.46,20.24-45.19,28.73-14.88,8.03-30.27,14.99-45.91,21.47-18.78,7.78-38.3,13.14-57.84,18.24-17.18,4.49-34.83,7.06-52.58,8.79-19.42,1.89-38.84,3.5-58.35,2.79-21.96-.81-43.81-2.67-65.59-6.08-27.06-4.23-53.23-11.62-78.82-20.93-16.59-6.03-32.83-13.07-48.56-21.33-12.76-6.69-25.26-13.76-37.32-21.51-17.83-11.45-34.75-24.19-50.74-38.21-12.51-10.96-24.53-22.4-35.62-34.72-14.62-16.25-28.27-33.31-40.32-51.67-9.65-14.71-18.79-29.66-26.63-45.41-.88-1.77-1.46-3.69-2.18-5.53h0c-.63-3.34,1.92-4.78,3.96-6.35,13.21-10.09,26.45-20.17,39.71-30.2,17.89-13.55,35.45-27.53,53.24-41.22,14.22-10.95,28.78-21.48,42.91-32.56,1.98-1.55,4.21-5.07,7.5-1.51,4.45,8.18,6.37,17.37,10.5,25.73,7.26,14.7,15.13,28.98,24.55,42.46,5.45,7.79,11.51,15.05,17.71,22.14,13.45,15.39,28.77,28.79,45.52,40.54,14.15,9.92,29.09,18.44,45,25.1,21.49,8.99,43.61,15.51,66.87,18.73,28.68,3.98,57.16,2.95,85.59-.84,15.42-2.06,30.72-5.15,45.48-10.69,11-4.13,22.22-7.71,32.72-13.01,7.34-3.71,14.31-8.18,21.44-12.3,11.64,8.23,22.56,17.42,33.89,26.05,16.63,12.66,33.09,25.54,49.72,38.21,17.16,13.07,34.35,26.11,51.1,39.71,1.78,1.45,3.78,2.87,3.53,5.64Z" fill="#34a753" stroke-width="0"/><path d="m859.79,460.26c-1.03,22.46-2.72,44.86-6.73,67.02-3.96,21.87-8.25,43.71-15.27,64.82-4.61,13.84-8.97,27.84-15.07,41.13-7.43,16.18-15.12,32.22-24.23,47.58-13.54,22.83-29.05,44.16-46.82,63.85-7.95,8.81-15.66,17.87-25.22,25.07-11.9-9.23-23.77-18.52-35.71-27.69-16.53-12.71-33.2-25.24-49.67-38.02-14.23-11.05-28.21-22.41-42.43-33.47-3.13-2.43-6.5-4.55-9.58-7.11-1.36-1.13-1.27-2.04-.85-3.32h0c24.44-16.16,45.02-36.25,60.52-61.13,9.55-15.33,16.99-31.72,21.88-49.26,1.54-5.54,3.13-11.1,4.75-16.63.72-2.48.05-3.44-2.45-3.37-1.49.04-2.99-.01-4.49-.01-74.15,0-148.3-.06-222.44.14-5.23.01-6.16-1.47-6.14-6.33.18-52.48.11-104.96.11-157.44,0-6.4.02-6.41,6.5-6.41h394.89c8.74,0,9.64.87,11.29,9.69,5.63,30.04,8.55,60.3,7.16,90.89Z" fill="#4284f3" stroke-width="0"/><path d="m192.83,522.26c-5.38,1.72-9.02,6-13.34,9.23-21.54,16.12-43.15,32.15-64.24,48.86-8.78,6.96-17.79,13.63-26.5,20.7-14.07,11.43-28.8,22.07-43.24,33.04-5.26-7.5-8.61-16-11.75-24.47-3.97-10.7-8.77-21.09-12-32.09-3.26-11.14-5.97-22.42-9.19-33.54-3.91-13.46-6.05-27.16-7.96-40.93-3.7-26.75-5.47-53.63-4.21-80.65,1.27-27.28,4.23-54.39,10.28-81.03,3.04-13.37,7.12-26.52,11.25-39.61,5.01-15.93,11.19-31.45,18.29-46.58,1.42-3.04,2.21-6.53,4.85-8.95,6.27,1.89,10.3,7.08,15.33,10.74,16.45,11.98,32.58,24.41,48.71,36.83,21.67,16.66,43.2,33.51,64.86,50.19,6.14,4.72,12.54,9.12,18.82,13.66.68,4.23-2.35,7.39-3.33,11.18-8.91,34.81-11.97,69.88-6.92,105.64,1.83,13.01,4.38,25.78,7.57,38.48.79,3.15,3.7,5.67,2.72,9.3Z" fill="#fabb05" stroke-width="0"/></g></svg>